<?xml version="1.0" encoding="iso-8859-1"?>
<!-- Generator: Adobe Illustrator 19.0.0, SVG Export Plug-In . SVG Version: 6.00 Build 0)  -->
<svg version="1.1" id="Layer_1" xmlns="http://www.w3.org/2000/svg" xmlns:xlink="http://www.w3.org/1999/xlink" x="0px" y="0px"
	 viewBox="0 0 503.607 503.607" style="enable-background:new 0 0 503.607 503.607;" xml:space="preserve">
<g transform="translate(1 1)">
	<path style="fill:#15A143;" d="M200.443,200.443c0-27.698-22.662-50.361-50.361-50.361s-50.361,22.662-50.361,50.361
		s22.662,50.361,50.361,50.361S200.443,228.141,200.443,200.443"/>
	<path style="fill:#1CD759;" d="M175.262,200.443c0-27.698-16.787-50.361-37.77-50.361s-37.77,22.662-37.77,50.361
		s16.787,50.361,37.77,50.361S175.262,228.141,175.262,200.443"/>
	<path style="fill:#FD9808;" d="M494.213,284.377H234.016V158.475h142.689C441.334,158.475,494.213,219.748,494.213,284.377"/>
	<g>
		<path style="fill:#FFDD09;" d="M469.033,284.377H234.016V158.475h117.508c64.63,0,117.508,52.879,117.508,117.508V284.377z"/>
		<polygon style="fill:#FFDD09;" points="7.393,435.459 66.148,435.459 66.148,343.131 435.459,343.131 435.459,435.459 
			494.213,435.459 494.213,284.377 66.148,284.377 66.148,66.148 7.393,66.148 		"/>
	</g>
	<path d="M502.607,443.852h-75.541v-92.328H74.541v92.328H-1V57.754h75.541v218.229h428.066V443.852z M443.852,427.066h41.967
		V292.77H57.754V74.541H15.787v352.525h41.967v-92.328h386.098V427.066z"/>
	<path d="M502.607,292.77H225.623V150.082h151.082c67.148,0,125.902,62.951,125.902,134.295V292.77z M242.41,275.984h243.41
		c-4.197-58.754-53.718-109.115-109.115-109.115H242.41V275.984z"/>
	<path d="M150.082,259.197c-32.734,0-58.754-26.02-58.754-58.754s26.02-58.754,58.754-58.754s58.754,26.02,58.754,58.754
		S182.816,259.197,150.082,259.197z M150.082,158.475c-23.502,0-41.967,18.466-41.967,41.967s18.466,41.967,41.967,41.967
		s41.967-18.466,41.967-41.967S173.584,158.475,150.082,158.475z"/>
</g>
<g>
</g>
<g>
</g>
<g>
</g>
<g>
</g>
<g>
</g>
<g>
</g>
<g>
</g>
<g>
</g>
<g>
</g>
<g>
</g>
<g>
</g>
<g>
</g>
<g>
</g>
<g>
</g>
<g>
</g>
</svg>
